<svg width="24" height="18" viewBox="0 0 24 18" fill="none" xmlns="http://www.w3.org/2000/svg">
<path d="M23 0H1C0.734784 0 0.48043 0.105357 0.292893 0.292893C0.105357 0.48043 0 0.734784 0 1L0 17C0 17.2652 0.105357 17.5196 0.292893 17.7071C0.48043 17.8946 0.734784 18 1 18H23C23.2652 18 23.5196 17.8946 23.7071 17.7071C23.8946 17.5196 24 17.2652 24 17V1C24 0.734784 23.8946 0.48043 23.7071 0.292893C23.5196 0.105357 23.2652 0 23 0Z" fill="#002781"/>
<path d="M24 1C24 0.734784 23.8946 0.48043 23.7071 0.292893C23.5196 0.105357 23.2652 0 23 0H20.4195L14 4.938V0H10V4.938L3.5805 0H1C0.734784 0 0.48043 0.105357 0.292893 0.292893C0.105357 0.48043 0 0.734784 0 1L0 2.293L6.1195 7H0V11H6.1195L0 15.7075V17C0 17.2652 0.105357 17.5196 0.292893 17.7071C0.48043 17.8946 0.734784 18 1 18H3.5805L10 13.062V18H14V13.062L20.4195 18H23C23.2652 18 23.5196 17.8946 23.7071 17.7071C23.8946 17.5196 24 17.2652 24 17V15.7075L17.8805 11H24V7H17.8805L24 2.293V1Z" fill="#E6E6E6"/>
<path d="M24 8H13V0H11V8H0V10H11V18H13V10H24V8Z" fill="#D10D24"/>
<path d="M10 10.8617L0.791016 17.9777C0.859728 17.9923 0.929762 17.9999 1.00002 18.0002H2.19302L10 11.9677V10.8617Z" fill="#D10D24"/>
<path d="M14 7.1385L23.209 0.0225C23.1403 0.00788517 23.0703 0.000345806 23 0H21.807L14 6.033V7.1385Z" fill="#D10D24"/>
<path d="M9.003 7.00025L0.3075 0.28125C0.210319 0.374097 0.132966 0.48568 0.0801145 0.609258C0.027263 0.732836 9.42173e-06 0.865845 0 1.00025L0 1.15025L7.572 7.00025H9.003Z" fill="#D10D24"/>
<path d="M14.9969 11L23.6924 17.719C23.7896 17.6262 23.867 17.5146 23.9198 17.391C23.9727 17.2674 23.9999 17.1344 24 17V16.85L16.4279 11H14.9969Z" fill="#D10D24"/>
</svg>
