<svg xmlns="http://www.w3.org/2000/svg" width="24" height="17"><path d="M22.83 6.652l-3.054-4.66c-.375-.616-1.07-.99-1.795-.99h-12c-.723 0-1.42.375-1.795.99l-3.054 4.66c-.08.134-.134.295-.134.455v6.723c0 1.18.964 2.143 2.143 2.17h17.68c1.18-.027 2.143-.99 2.143-2.17V7.107c0-.16-.054-.32-.134-.455zm-6.482-.295c-.375 0-.723.24-.804.616 0 .134-.616 2.973-3.562 2.973S8.42 7.107 8.42 6.973c-.08-.375-.43-.616-.804-.616h-4.34l2.25-3.482c.107-.16.268-.24.455-.268h12c.188.027.348.107.455.268l2.25 3.482h-4.34z" stroke="#02BF9B" fill="none"/></svg>