<svg xmlns="http://www.w3.org/2000/svg" width="19" height="15"><path d="M16.25 5h-.625V.625c0-.207-.103-.4-.275-.518s-.4-.14-.583-.062L5.536 3.75H2.47c-1.036 0-1.875.84-1.875 1.875v2.5C.594 9.16 1.433 10 2.47 10h.03v4.375c0 .345.28.625.625.625h2.5c.345 0 .625-.28.625-.625v-4.09l8.518 3.42c.074.03.153.045.232.045.345 0 .625-.28.625-.625V8.75h.625c1.036 0 1.875-.84 1.875-1.875S17.286 5 16.25 5zM1.844 8.125v-2.5c0-.345.28-.625.625-.625H5.03v3.75H2.47c-.345 0-.625-.28-.625-.625zM5 13.75H3.75V10H5v3.75zm9.375-1.55L6.28 8.95V4.798l8.094-3.248V12.2zm1.875-4.7h-.625V6.25h.625c.345 0 .625.28.625.625s-.28.625-.625.625z" fill="#02BF9B" fill-rule="nonzero"/></svg>