<svg xmlns="http://www.w3.org/2000/svg" width="21" height="30"><path d="M10.5 29a.61.61 0 0 1-.47-.264l-7.616-12.66-.18-.264c0-.038-.036-.038-.036-.075C1.4 14.265 1 12.607 1 10.95 1 5.447 5.28 1 10.5 1c5.258 0 9.5 4.447 9.5 9.9 0 1.658-.4 3.316-1.197 4.786 0 .038-.036.038-.036.075l-.18.264c-.073.15-.18.302-.254.453l-7.36 12.248c-.1.15-.3.264-.47.264zM3.176 15.245l.145.226c.073.15.145.264.254.377L10.5 27.38l6.926-11.494a2.57 2.57 0 0 0 .254-.415l.145-.226v-.038c.725-1.32 1.088-2.8 1.088-4.296 0-4.824-3.77-8.78-8.412-8.78S2.09 6.05 2.09 10.874a9.28 9.28 0 0 0 1.088 4.372c0-.038 0-.038 0 0zM13.393 15a.66.66 0 0 1-.377-.107L10.53 13.64l-2.487 1.254c-.34.18-.754.072-1.017-.18a.79.79 0 0 1-.188-.646l.5-2.652L5.3 9.552a.73.73 0 0 1-.264-.788c.113-.287.34-.502.678-.538l2.8-.394 1.244-2.4c.15-.287.415-.43.754-.43a.92.92 0 0 1 .754.43l1.244 2.4 2.8.394c.3.036.565.25.678.538s0 .6-.226.788l-2.035 1.864.5 2.652c.038.215-.038.466-.188.646a.8.8 0 0 1-.603.287zM6.497 9.193l1.696 1.577c.188.18.3.43.226.68l-.415 2.222 2.1-1.04a.92.92 0 0 1 .754 0l2.1 1.04-.415-2.222c-.038-.25.038-.502.226-.68l1.696-1.577-2.3-.322c-.264-.036-.5-.18-.603-.43L10.53 6.434 9.474 8.44a.83.83 0 0 1-.603.43l-2.374.322z" stroke-width=".5" fill="#02BF9B" fill-rule="nonzero" stroke="#02BF9B"/></svg>