<?xml version="1.0" encoding="UTF-8"?>
<svg width="36px" height="34px" viewBox="0 0 36 34" version="1.1" xmlns="http://www.w3.org/2000/svg" xmlns:xlink="http://www.w3.org/1999/xlink">
    <!-- Generator: Sketch 58 (84663) - https://sketch.com -->
    <title>Shapicon/recommendations</title>
    <desc>Created with Sketch.</desc>
    <defs>
        <path d="M0.0596519995,9.7101996 C-0.531828571,15.0601488 3.22810693,24.0249808 13.4516649,26.001091 C18.6480449,27.0131808 25.5341203,25.6155099 28.9560586,18.530417 C40.1936276,-4.84556738 1.49599963,-4.12261016 0.0596519995,9.7101996 Z" id="path-1"></path>
        <path d="M28.6654367,-2.27434314 C28.9448845,-1.98535323 29.0589356,-1.58185788 28.9707846,-1.19426606 L27.5190192,5.13715765 C27.4104208,5.61108293 26.9896587,5.93142552 26.523458,5.93142552 C26.4475755,5.93142552 26.3712385,5.92279218 26.2939928,5.9050711 C25.7437305,5.77920599 25.3997598,5.2307613 25.5260793,4.68004467 L26.2565049,1.49373118 L21.969213,5.5565958 C22.4129092,6.46472313 22.6625346,7.49102573 22.6625346,8.5784098 L22.6625346,8.5784098 L22.6625346,14.3055768 C22.6625346,18.0282353 19.7368385,21.034998 16.1145482,21.034998 L16.1145482,21.034998 L14.9535577,21.034998 L7.70897693,25.8076371 C7.52321845,25.9030899 7.29102035,25.9985427 7.05882225,25.9985427 C6.78018453,25.9985427 6.50154681,25.9030899 6.31578833,25.7121844 C5.89783175,25.425826 5.66563365,24.9008357 5.80495251,24.3758454 L5.80495251,24.3758454 L6.54798643,21.034998 L6.50154681,21.034998 C2.92569607,21.034998 0,18.0282353 0,14.3055768 L0,14.3055768 L0,8.5784098 C0,4.85575126 2.92569607,1.84898859 6.50154681,1.84898859 L6.50154681,1.84898859 L16.1145482,1.84898859 C17.9463282,1.84898859 19.5999689,2.61790527 20.7871996,3.85948066 L24.8645049,-0.00426882401 L21.6088119,0.627824445 C21.0540058,0.73324215 20.5178296,0.37291353 20.4105943,-0.181438194 C20.3033591,-0.735789917 20.6655052,-1.27242056 21.219857,-1.37965581 L27.5953562,-2.61558752 C27.9870375,-2.68965255 28.385989,-2.56333306 28.6654367,-2.27434314 Z M16.1145482,3.51941229 L6.50154681,3.51941229 C3.80804885,3.51941229 1.6253867,5.7625527 1.6253867,8.5784098 L1.6253867,8.5784098 L1.6253867,14.3055768 C1.6253867,17.1214339 3.80804885,19.3645743 6.50154681,19.3645743 L6.50154681,19.3645743 L8.63776934,19.3645743 L7.61609769,23.8985815 L14.4891615,19.3645743 L16.1145482,19.3645743 C18.8080461,19.3645743 21.0371479,17.1214339 21.0371479,14.3055768 L21.0371479,14.3055768 L21.0371479,8.5784098 C21.0371479,7.93266813 20.9199213,7.31704516 20.7067502,6.75168609 L16.5233165,10.7147539 C16.0293982,11.1841353 15.2637566,11.1736844 14.7816524,10.6911258 L12.32751,8.23698343 L5.30405547,15.0105254 C5.1054885,15.2013677 4.84966881,15.2967889 4.59430351,15.2967889 C4.32621538,15.2967889 4.05858163,15.19228 3.85819712,14.9841709 C3.46606143,14.5774949 3.47787549,13.9304483 3.88455154,13.5383126 L11.0106975,6.66662314 C11.7518022,5.95232731 12.9463847,5.96323259 13.6729489,6.69070563 L15.6799748,8.69727712 L19.5878297,4.99492601 C18.6937095,4.08100081 17.4622615,3.51941229 16.1145482,3.51941229 L16.1145482,3.51941229 Z" id="path-3"></path>
    </defs>
    <g id="Recommendation" stroke="none" stroke-width="1" fill="none" fill-rule="evenodd">
        <g id="4mobile-modal" transform="translate(-29.000000, -214.000000)">
            <g id="Group-3" transform="translate(13.000000, 194.000000)">
                <g id="Shapicon/recommendations" transform="translate(16.000000, 20.000000)">
                    <g id="shapes/shape1" transform="translate(0.000000, 4.965517)">
                        <g id="tint/green-copy-5" transform="translate(0.000000, 2.491071)">
                            <mask id="mask-2" fill="white">
                                <use xlink:href="#path-1"></use>
                            </mask>
                            <use id="Mask" fill="#02BF9B" fill-rule="nonzero" xlink:href="#path-1"></use>
                            <g id="tint/yellowPale" mask="url(#mask-2)" fill="#FFE6CC">
                                <g transform="translate(-12.178571, -3.598214)" id="Rectangle">
                                    <rect x="0" y="0" width="55" height="33"></rect>
                                </g>
                            </g>
                        </g>
                    </g>
                    <g id="icon/recommendations" transform="translate(6.827586, 0.000000)">
                        <g id="tint/green" transform="translate(0.000000, 2.636364)">
                            <mask id="mask-4" fill="white">
                                <use xlink:href="#path-3"></use>
                            </mask>
                            <use id="Mask" fill="#FFFFFF" fill-rule="nonzero" xlink:href="#path-3"></use>
                            <g id="tint/black" mask="url(#mask-4)" fill="#202224">
                                <g transform="translate(0.000000, -2.636364)" id="Rectangle">
                                    <rect x="0" y="0" width="29" height="29"></rect>
                                </g>
                            </g>
                        </g>
                    </g>
                </g>
            </g>
        </g>
    </g>
</svg>