<svg xmlns="http://www.w3.org/2000/svg" width="15" height="15"><path d="M13.242 5.186C12.95 2.285 10.46 0 7.5 0S2.05 2.285 1.758 5.186C.79 5.244 0 6.035 0 7.03V8.35a1.89 1.89 0 0 0 1.875 1.875s.44.03.47-.322V5.77C2.344 2.93 4.658.615 7.5.615s5.156 2.314 5.156 5.156v6.533a1.04 1.04 0 0 1-1.025 1.025H9.58c-.146-.586-.674-1.025-1.29-1.025H6.68c-.732 0-1.348.615-1.348 1.348 0 .762.615 1.348 1.348 1.348h1.61c.615 0 1.172-.44 1.29-1.025h2.05c.908 0 1.61-.732 1.61-1.64v-2.11c.967-.088 1.73-.88 1.73-1.846V7.06c.03-1.025-.762-1.816-1.73-1.875zM1.73 8.965v.586C1.084 9.492.615 8.965.615 8.32V7.002a1.29 1.29 0 0 1 1.113-1.26v3.223zm6.592 5.42H6.71c-.4 0-.703-.352-.703-.732 0-.4.352-.703.703-.703h1.61c.4 0 .703.322.703.703 0 .4-.293.732-.703.732zm6.064-6.035c0 .615-.47 1.143-1.113 1.23V5.77c.645.06 1.113.615 1.113 1.26V8.35zM10.87 6.62c0-.527-.44-.937-.937-.937-.527 0-.937.44-.937.938 0 .527.44.938.938.938s.937-.44.937-.937zm-1.29 0c0-.176.176-.322.322-.322.205 0 .322.176.322.322 0 .205-.176.322-.322.322s-.322-.176-.322-.322zm-3.545 0c0-.527-.44-.937-.937-.937-.527 0-.937.44-.937.938 0 .527.44.938.938.938s.938-.44.938-.937zm-1.29 0c0-.176.146-.322.322-.322s.293.176.293.322c0 .205-.146.322-.293.322-.176 0-.322-.176-.322-.322zm5.273 2.55c.117-.146.088-.352-.088-.44-.146-.117-.352-.088-.44.088-.47.645-1.2 1.055-1.992 1.055-.82 0-1.553-.4-1.992-1.055-.088-.117-.293-.205-.44-.088-.117.088-.205.264-.088.44.557.79 1.494 1.29 2.52 1.29.996 0 1.934-.498 2.52-1.29z" fill="#02BF9B" fill-rule="nonzero"/></svg>