<svg width="512" height="512" xmlns="http://www.w3.org/2000/svg"><path d="M452 177C442 78 357 0 256 0S70 78 60 177c-33 2-60 29-60 63v45c0 35 29 64 64 64 0 0 15 1 16-11V197c0-97 79-176 176-176s176 79 176 176v223c0 19-16 35-35 35h-70c-5-20-23-35-44-35h-55c-25 0-46 21-46 46 0 26 21 46 46 46h55c21 0 40-15 44-35h70c31 0 55-25 55-56v-72c33-3 59-30 59-63v-45c1-35-26-62-59-64zM59 306v20c-22-2-38-20-38-42v-45c0-21 16-40 38-43zm225 185h-55c-14 0-24-12-24-25 0-14 12-24 24-24h55c14 0 24 11 24 24 0 14-10 25-24 25zm207-206c0 21-16 39-38 42V197c22 2 38 21 38 43zm-120-59c0-18-15-32-32-32-18 0-32 15-32 32 0 18 15 32 32 32s32-15 32-32zm-44 0c0-6 6-11 11-11 7 0 11 6 11 11 0 7-6 11-11 11s-11-6-11-11zm-121 0c0-18-15-32-32-32-18 0-32 15-32 32 0 18 15 32 32 32s32-15 32-32zm-44 0c0-6 5-11 11-11s10 6 10 11c0 7-5 11-10 11-6 0-11-6-11-11zm180 87c4-5 3-12-3-15-5-4-12-3-15 3-16 22-41 36-68 36-28 0-53-14-68-36-3-4-10-7-15-3-4 3-7 9-3 15 19 27 51 44 86 44 34 0 66-17 86-44z"/></svg>