<?xml version="1.0" encoding="UTF-8"?>
<svg width="275px" height="206px" viewBox="0 0 275 206" version="1.1" xmlns="http://www.w3.org/2000/svg" xmlns:xlink="http://www.w3.org/1999/xlink">
    <!-- Generator: Sketch 58 (84663) - https://sketch.com -->
    <title>icon</title>
    <desc>Created with Sketch.</desc>
    <g id="icon" stroke="none" stroke-width="1" fill="none" fill-rule="evenodd">
        <path d="M131.39466,5 C153.34116,5 174.972501,12.5747553 192.287862,26.1832683 L197.496232,26.1830357 C231.869049,24.528111 254.343583,32.4717494 260.292725,49.0209961 C261.284248,51.6688756 259.962217,54.316755 257.318154,55.3097098 C256.657138,55.6406948 256.32663,55.6406948 255.665615,55.6406948 C253.682568,55.6406948 251.69952,54.316755 251.038505,52.3308454 C246.993772,41.4254625 229.183003,35.506472 202.844965,35.9544874 C209.557111,43.202514 215.157837,51.4966816 219.30975,60.2744838 C220.631782,62.5913783 219.30975,65.5702427 216.996195,66.8941825 C214.68264,68.2181222 211.70807,66.8941825 210.386038,64.5772879 C204.96627,53.7221047 197.39382,43.7908312 188.26197,35.6746762 C187.408686,35.2849973 186.668798,34.654432 186.137859,33.8808013 C170.775871,21.539023 151.400287,14.5985631 131.39466,14.5985631 C83.1405132,14.5985631 43.8100782,53.9857701 43.8100782,102.30957 C43.8100782,122.513864 50.685414,141.213814 62.2137106,156.135457 C77.9547256,155.609633 96.8068559,152.748653 118.037012,146.983592 L105.28454,141.034807 C102.640477,140.041853 101.648953,137.062988 102.970985,134.415109 C104.293016,131.767229 106.937079,130.774275 109.581142,132.098214 L133.446795,143.228308 C133.533904,143.266938 133.621059,143.308061 133.708215,143.351702 C136.352278,144.344657 137.343802,147.323521 136.02177,149.971401 L124.784503,173.802316 C123.79298,175.788225 122.14044,176.78118 120.157393,176.78118 C119.496377,176.78118 118.835362,176.78118 118.174346,176.450195 C115.530283,175.457241 114.53876,172.478376 115.860791,169.830497 L122.169895,156.265964 C103.580215,161.364287 86.0672673,164.341318 70.4722413,165.407657 C86.2535914,180.817625 107.753104,190.351563 131.39466,190.351563 C165.43697,190.351563 196.504708,170.492467 211.047054,139.379883 C212.038577,136.732003 215.013148,135.739049 217.657211,137.062988 C220.301274,138.055943 221.292797,141.034807 219.970766,143.682687 C204.106389,178.10512 169.403064,200.28111 131.39466,200.28111 C101.606209,200.28111 74.9503264,186.923179 57.0703847,165.858835 L57.6914082,165.858677 C28.6067168,165.858677 8.11522963,157.915039 2.49659606,143.020717 C-3.39087479,126.970579 8.20097302,106.382224 35.3501258,85.7468245 C43.3308836,39.8557791 83.275758,5 131.39466,5 Z M33.9381303,99.700639 L33.7451786,99.8703616 C16.3572363,115.04448 8.30031403,129.632377 11.7508161,139.710868 C15.1215141,148.824889 28.6331921,154.926651 49.7440934,156.041254 C39.7202055,140.698931 33.8948425,122.354769 33.8948425,102.640555 C33.8948425,101.657106 33.9093391,100.677067 33.9381303,99.700639 Z M168.663374,68.4222086 C180.912747,68.4222086 195.148506,74.6552707 211.039585,86.465283 L244.808128,71.0466558 C246.794513,70.0624881 249.77409,69.7344322 253.084732,69.7344322 C259.374951,69.7344322 270.962196,71.3747117 273.941773,78.2638856 C275.26603,81.2163886 276.590287,86.465283 270.631132,91.3861215 C267.651554,93.6825128 263.016656,95.978904 257.388566,98.6033512 L163.035283,141.250618 C162.446725,141.542223 161.858166,141.574624 161.269608,141.578224 L161.048898,141.578674 C160.38677,141.578674 159.724642,141.578674 159.062513,141.250618 L119.334815,123.207544 C117.34843,122.223376 116.024174,119.926985 116.686302,117.630593 C117.34843,115.334202 119.003751,113.693923 121.3212,113.693923 L160.717834,112.381699 L174.953592,103.852246 L152.772294,80.232221 C151.779102,79.2480533 151.448038,77.9358297 151.448038,76.6236061 C151.448038,75.3113825 152.110166,73.9991589 153.103359,73.0149912 C153.765487,72.6869353 158.731449,68.4222086 168.663374,68.4222086 Z M168.001245,78.5919415 C166.676989,78.5919415 165.352732,78.5919415 164.028476,78.9199974 L185.547645,101.555854 C186.540838,102.540022 187.202966,104.180301 186.871902,105.492525 C186.540838,106.804749 185.878709,108.116972 184.554453,109.10114 L164.028476,121.567264 C163.366347,121.89532 162.373155,122.223376 161.711026,122.223376 L142.509306,122.879488 L161.048898,131.080885 L252.753668,89.745842 C257.71963,87.4494507 264.009849,84.8250035 264.671977,83.184724 C264.671977,83.184724 264.671977,82.8566681 264.340913,82.5286122 C263.678785,81.5444445 258.712822,79.9041651 252.422604,79.9041651 C250.105155,79.9041651 248.780898,80.232221 248.11877,80.5602769 L211.701713,96.9630717 C210.046392,97.6191835 208.060007,97.6191835 206.404687,96.3069599 C187.865094,81.5444445 175.284657,78.5919415 168.001245,78.5919415 Z" id="Combined-Shape" fill="#AEE4FB" fill-rule="nonzero"></path>
    </g>
</svg>