<svg xmlns="http://www.w3.org/2000/svg" width="10" height="15"><path d="M2.022 7.236c-.088 0-.205.03-.293.088A4.47 4.47 0 0 0 0 10.84v3.662c0 .293.205.498.44.498h8.35c.264 0 .47-.205.47-.498V10.84c0-1.406-.703-2.695-1.758-3.516-.146-.117-.352-.117-.498-.03-.703.44-1.523.645-2.373.645-.88 0-1.7-.205-2.402-.645-.06-.03-.117-.06-.205-.06zm.03 1.025c.79.4 1.64.615 2.578.615.908 0 1.787-.205 2.55-.615.703.645 1.143 1.553 1.143 2.578v3.223H.908V10.84c0-1.025.44-1.934 1.143-2.578zM4.63 0c-1.816 0-3.28 1.465-3.28 3.28 0 1.787 1.465 3.252 3.28 3.252 1.787 0 3.28-1.465 3.28-3.252C7.9 1.465 6.416 0 4.63 0zm0 .938a2.33 2.33 0 0 1 2.344 2.344c0 1.29-1.055 2.315-2.344 2.315S2.256 4.57 2.256 3.28C2.256 1.963 3.34.938 4.63.938z" fill="#02BF9B" fill-rule="nonzero"/></svg>